<?xml version="1.0" encoding="UTF-8" standalone="no"?>
<svg
   viewBox="0 0 316 316"
   version="1.1"
   id="svg64"
   sodipodi:docname="logo.svg"
   inkscape:version="1.2.2 (1:1.2.2+202212051552+b0a8486541)"
   xmlns:inkscape="http://www.inkscape.org/namespaces/inkscape"
   xmlns:sodipodi="http://sodipodi.sourceforge.net/DTD/sodipodi-0.dtd"
   xmlns="http://www.w3.org/2000/svg"
   xmlns:svg="http://www.w3.org/2000/svg">
  <defs
     id="defs68" />
  <sodipodi:namedview
     id="namedview66"
     pagecolor="#505050"
     bordercolor="#ffffff"
     borderopacity="1"
     inkscape:showpageshadow="0"
     inkscape:pageopacity="0"
     inkscape:pagecheckerboard="1"
     inkscape:deskcolor="#505050"
     showgrid="false"
     inkscape:zoom="2.1123696"
     inkscape:cx="113.37978"
     inkscape:cy="249.00945"
     inkscape:window-width="2560"
     inkscape:window-height="1384"
     inkscape:window-x="0"
     inkscape:window-y="0"
     inkscape:window-maximized="1"
     inkscape:current-layer="svg64" />
  <path
     id="rect230"
     style="opacity:1;fill:#2b1100;fill-opacity:1;stroke:#800000;stroke-width:0.236834;stroke-dasharray:1.926, 3.85199;stop-color:#000000"
     d="m 231.74924,35.254544 -84.25072,54.834714 0.0871,0.05622 h 26.58457 v 86.820352 h 115.2336 V 90.145519 H 315.9129 L 316,90.089299 Z" />
  <path
     id="rect230-6"
     style="fill:#803300;fill-opacity:1;stroke:#800000;stroke-width:0.253396;stroke-dasharray:2.06069, 4.12138;stop-color:#000000"
     d="M 85.943298,97.559235 0,159.09562 l 0.08882793,0.0631 H 27.207471 v 97.43117 H 144.75611 v -97.43112 h 27.04167 l 0.0888,-0.0631 z" />
  <path
     style="color:#000000;fill:#4d4d4d;-inkscape-stroke:none"
     d="m 315.84375,183.94531 c -45.62892,0.31298 -73.00258,15.21366 -90.22461,31.57617 -17.22203,16.36252 -24.46329,28.8552 -46.22266,38.47852 -10.4264,4.61119 -28.57622,6.54524 -47.92773,6.3418 -19.35151,-0.20345 -39.391791,-2.13982 -57.214844,-1.41407 -13.914356,0.5666 -29.31799,1.63079 -44.482422,9.44336 -15.164432,7.81257 -28.1863297,26.48167 -28.3769528,47.42188 l 45.2988278,0.41406 c 0.06819,-7.49117 -0.137247,-5.52354 3.824219,-7.56445 3.961466,-2.04091 13.992189,-3.98127 25.580078,-4.45313 12.541869,-0.5107 33.163674,1.22074 54.896484,1.44922 21.73281,0.22848 45.09092,-0.64125 66.72461,-10.20898 32.06698,-14.18198 46.88872,-35.46503 59.10156,-47.06836 12.21285,-11.60333 21.64619,-18.85867 59.33594,-19.11719 z"
     id="path1197" />
</svg>
